<svg width="512" height="512" xmlns="http://www.w3.org/2000/svg">
 <!-- Created with Method Draw - http://github.com/duopixel/Method-Draw/ -->
 <g>
  <title>background</title>
  <rect fill="none" id="canvas_background" height="514" width="514" y="-1" x="-1"/>
 </g>
 <g>
  <title>Layer 1</title>
  <ellipse ry="256" rx="256" id="svg_1" cy="255" cx="255" stroke-width="0" stroke="#000" fill="#ff3860"/>
  <path stroke="#000" id="svg_2" d="m255.200737,203.818933c-28.852486,0 -52.231565,22.522252 -52.231565,50.317314c0,27.782171 23.379079,50.317314 52.231565,50.317314c6.610913,0 12.873883,-1.31498 18.695234,-3.480829l11.187699,16.566167l18.186702,-11.409383l-11.120787,-16.450139c9.434602,-9.101723 15.282718,-21.671382 15.282718,-35.54313c0,-27.795063 -23.379079,-50.317314 -52.231565,-50.317314zm-0.200736,-136.190651c-107.420644,0 -194.500017,83.887975 -194.500017,187.371727c0,103.483752 87.079373,187.371727 194.500017,187.371727c107.420644,0 194.500017,-83.887975 194.500017,-187.371727c0,-103.483752 -87.079373,-187.371727 -194.500017,-187.371727zm136.152689,249.369156c-3.225162,6.497547 -6.865179,12.763039 -11.053875,18.69334l-42.261666,-8.75364c-6.436942,6.78117 -13.770505,12.814607 -21.866866,17.855363l1.592507,41.280052c-6.784884,2.96515 -13.757122,5.427515 -20.997009,7.348416l-26.162621,-32.410384c-4.978258,0.65749 -10.036811,1.108708 -15.202423,1.108708c-4.76414,0 -9.447985,-0.373867 -14.064918,-0.954005l-26.028797,32.229897c-7.239886,-1.946686 -14.252272,-4.40905 -21.010391,-7.335524l1.565743,-40.558102c-8.484451,-5.131 -16.165957,-11.344924 -22.910694,-18.396825l-41.137543,8.482909c-4.188696,-5.878733 -7.801948,-12.170009 -11.053875,-18.667556l27.942482,-29.767532c-3.024426,-9.063047 -4.737375,-18.706232 -5.15223,-28.658824l-37.042524,-18.873827c0.736033,-7.258173 2.208098,-14.271398 4.028107,-21.181488l41.271367,-5.504866c3.8809,-9.050155 9.03313,-17.429928 15.189041,-25.036184l-15.818014,-37.399572c5.339584,-5.014972 11.107404,-9.591617 17.169638,-13.794396l35.637371,21.555355c8.69857,-4.34459 18.052878,-7.644931 27.902335,-9.668969l12.954178,-38.688768c3.720311,-0.270731 7.42724,-0.541462 11.201081,-0.541462c3.773841,0 7.494152,0.283623 11.201081,0.541462l13.061237,39.036851c9.635339,2.101389 18.748763,5.363055 27.246597,9.668969l36.18605,-21.877654c6.088999,4.202779 11.870202,8.779424 17.196403,13.794396l-16.273016,38.495388c5.727674,7.271065 10.612255,15.225403 14.292419,23.785664l42.622991,5.685354c1.806626,6.897198 3.305456,13.936207 4.041489,21.181488l-38.367383,19.544209c-0.455002,9.359562 -2.007362,18.435501 -4.750757,27.073113l28.852486,30.708645z" stroke-width="0" fill="#ffffff"/>
 </g>
</svg>